%TF.GenerationSoftware,KiCad,Pcbnew,9.0.6-9.0.6~ubuntu25.04.1*%
%TF.CreationDate,2025-12-27T12:18:54+10:00*%
%TF.ProjectId,Stormbreaker,53746f72-6d62-4726-9561-6b65722e6b69,rev?*%
%TF.SameCoordinates,Original*%
%TF.FileFunction,Legend,Bot*%
%TF.FilePolarity,Positive*%
%FSLAX46Y46*%
G04 Gerber Fmt 4.6, Leading zero omitted, Abs format (unit mm)*
G04 Created by KiCad (PCBNEW 9.0.6-9.0.6~ubuntu25.04.1) date 2025-12-27 12:18:54*
%MOMM*%
%LPD*%
G01*
G04 APERTURE LIST*
%ADD10C,0.100000*%
G04 APERTURE END LIST*
D10*
G36*
X136094294Y-43208893D02*
G01*
X136005267Y-43253773D01*
X135961744Y-43281882D01*
X135922347Y-43315689D01*
X135888527Y-43355554D01*
X135860370Y-43403738D01*
X135841555Y-43458278D01*
X135832954Y-43525615D01*
X135834864Y-43591433D01*
X135845849Y-43649895D01*
X135865316Y-43702203D01*
X135893069Y-43750745D01*
X135927376Y-43793755D01*
X135968631Y-43831713D01*
X136015015Y-43863617D01*
X136067902Y-43890856D01*
X136128060Y-43913290D01*
X136223019Y-43935719D01*
X136327301Y-43946263D01*
X136428296Y-43941378D01*
X136530695Y-43922510D01*
X136628819Y-43892468D01*
X136720105Y-43854733D01*
X136612516Y-43552482D01*
X136560248Y-43574891D01*
X136497417Y-43599316D01*
X136427685Y-43618855D01*
X136391564Y-43624807D01*
X136356794Y-43625816D01*
X136307811Y-43619579D01*
X136270515Y-43607925D01*
X136250802Y-43595217D01*
X136240057Y-43578945D01*
X136236932Y-43557855D01*
X136243387Y-43538032D01*
X136260867Y-43522807D01*
X136315334Y-43497894D01*
X136370655Y-43482506D01*
X136444294Y-43455823D01*
X136523612Y-43415034D01*
X136561819Y-43388690D01*
X136596701Y-43357332D01*
X136626787Y-43321068D01*
X136651595Y-43279052D01*
X136668116Y-43232190D01*
X136674859Y-43176714D01*
X136672168Y-43111775D01*
X136660745Y-43053682D01*
X136641092Y-43001348D01*
X136613595Y-42952463D01*
X136580401Y-42908978D01*
X136541258Y-42870434D01*
X136497202Y-42837432D01*
X136448225Y-42809782D01*
X136393797Y-42787452D01*
X136307502Y-42764879D01*
X136214095Y-42754357D01*
X136126034Y-42754544D01*
X136038790Y-42763517D01*
X135953735Y-42781533D01*
X135874536Y-42808396D01*
X135958067Y-43135987D01*
X136062115Y-43095321D01*
X136110301Y-43081574D01*
X136169582Y-43070896D01*
X136218186Y-43066988D01*
X136275827Y-43073217D01*
X136302691Y-43081513D01*
X136324615Y-43093122D01*
X136340264Y-43109411D01*
X136346352Y-43130919D01*
X136343987Y-43139773D01*
X136336522Y-43146917D01*
X136312097Y-43156320D01*
X136282239Y-43161816D01*
X136257021Y-43165296D01*
X136193273Y-43179340D01*
X136170192Y-43184958D01*
X136094294Y-43208893D01*
G37*
G36*
X135132526Y-43082925D02*
G01*
X135300199Y-43102404D01*
X135300199Y-43889293D01*
X135701490Y-43938691D01*
X135680485Y-43140566D01*
X135865194Y-43158763D01*
X135855241Y-42811022D01*
X135095707Y-42746359D01*
X135132526Y-43082925D01*
G37*
G36*
X134543392Y-42737511D02*
G01*
X134607404Y-42749961D01*
X134705637Y-42782646D01*
X134797425Y-42827081D01*
X134882338Y-42882498D01*
X134958015Y-42947004D01*
X135024299Y-43020498D01*
X135080075Y-43102037D01*
X135123579Y-43190356D01*
X135152982Y-43283815D01*
X135164384Y-43348227D01*
X135168875Y-43414749D01*
X135166293Y-43483789D01*
X135156170Y-43552049D01*
X135137425Y-43621568D01*
X135109507Y-43692800D01*
X135077765Y-43752995D01*
X135041227Y-43803687D01*
X134999903Y-43845940D01*
X134953038Y-43882218D01*
X134903743Y-43911363D01*
X134851708Y-43933745D01*
X134769478Y-43955670D01*
X134683303Y-43963970D01*
X134596481Y-43960074D01*
X134512760Y-43945713D01*
X134432197Y-43921357D01*
X134357666Y-43888194D01*
X134289788Y-43846377D01*
X134234751Y-43799656D01*
X134170689Y-43726549D01*
X134119665Y-43653044D01*
X134080511Y-43578799D01*
X134049889Y-43500470D01*
X134028812Y-43424173D01*
X134016703Y-43349455D01*
X134013561Y-43292947D01*
X134400266Y-43292947D01*
X134401141Y-43330893D01*
X134407457Y-43370422D01*
X134420620Y-43416439D01*
X134440434Y-43463229D01*
X134471483Y-43517494D01*
X134497768Y-43551253D01*
X134529796Y-43580692D01*
X134565966Y-43604566D01*
X134604107Y-43621603D01*
X134643966Y-43631509D01*
X134683730Y-43633387D01*
X134721947Y-43626722D01*
X134754866Y-43611345D01*
X134782428Y-43586809D01*
X134805974Y-43549795D01*
X134820181Y-43504586D01*
X134824597Y-43441596D01*
X134818347Y-43372818D01*
X134800295Y-43312208D01*
X134772135Y-43257339D01*
X134738380Y-43212801D01*
X134698345Y-43175980D01*
X134655032Y-43148871D01*
X134608808Y-43130770D01*
X134564906Y-43123164D01*
X134521963Y-43125940D01*
X134482657Y-43139712D01*
X134449512Y-43164728D01*
X134424039Y-43203215D01*
X134413073Y-43229369D01*
X134404561Y-43260123D01*
X134400266Y-43292947D01*
X134013561Y-43292947D01*
X134012499Y-43273836D01*
X134015837Y-43200804D01*
X134026534Y-43129942D01*
X134054244Y-43027871D01*
X134091747Y-42939799D01*
X134120404Y-42896297D01*
X134162821Y-42850467D01*
X134214005Y-42810184D01*
X134277310Y-42775301D01*
X134347597Y-42750120D01*
X134428313Y-42735245D01*
X134483905Y-42732808D01*
X134543392Y-42737511D01*
G37*
G36*
X133503305Y-42760708D02*
G01*
X133626464Y-42772615D01*
X134017192Y-42815540D01*
X133994660Y-43911641D01*
X133652354Y-43946995D01*
X133648141Y-43709469D01*
X133309742Y-43958658D01*
X133090290Y-43710874D01*
X133382038Y-43519631D01*
X133320946Y-43476439D01*
X133267012Y-43428379D01*
X133219739Y-43375284D01*
X133178449Y-43317314D01*
X133146162Y-43259609D01*
X133122164Y-43201871D01*
X133117247Y-43184164D01*
X133481323Y-43184164D01*
X133482727Y-43199368D01*
X133498542Y-43232829D01*
X133513858Y-43253875D01*
X133536705Y-43277892D01*
X133563812Y-43300181D01*
X133598559Y-43322344D01*
X133637318Y-43340373D01*
X133682884Y-43353790D01*
X133669145Y-43133728D01*
X133606151Y-43113079D01*
X133564854Y-43107105D01*
X133529181Y-43110239D01*
X133507823Y-43119256D01*
X133492656Y-43133965D01*
X133484681Y-43151252D01*
X133481323Y-43184164D01*
X133117247Y-43184164D01*
X133105482Y-43141798D01*
X133097462Y-43083901D01*
X133097617Y-43027604D01*
X133106407Y-42972363D01*
X133123790Y-42922951D01*
X133149702Y-42878372D01*
X133183847Y-42839969D01*
X133227858Y-42807350D01*
X133283425Y-42780491D01*
X133343040Y-42763957D01*
X133415425Y-42756763D01*
X133503305Y-42760708D01*
G37*
G36*
X132828950Y-42697571D02*
G01*
X132485361Y-43130980D01*
X132154534Y-42788918D01*
X131810213Y-43735847D01*
X132150688Y-44014040D01*
X132302729Y-43560969D01*
X132492383Y-43892773D01*
X132721300Y-43541064D01*
X132856611Y-43953590D01*
X133185911Y-43740183D01*
X132828950Y-42697571D01*
G37*
G36*
X131396262Y-42758460D02*
G01*
X131517732Y-42768096D01*
X131654469Y-42785674D01*
X131844774Y-42818838D01*
X131834943Y-43914816D01*
X131652086Y-43931334D01*
X131509856Y-43936676D01*
X131380325Y-43934499D01*
X131288571Y-43927578D01*
X131207505Y-43915775D01*
X131151795Y-43903032D01*
X131104963Y-43887857D01*
X131082858Y-43877691D01*
X131063563Y-43865479D01*
X131034864Y-43836781D01*
X131006207Y-43805106D01*
X130971727Y-43760333D01*
X130940020Y-43709765D01*
X130911338Y-43649324D01*
X130897436Y-43606471D01*
X130890428Y-43562515D01*
X130890310Y-43528119D01*
X131266956Y-43528119D01*
X131270436Y-43545949D01*
X131277056Y-43563299D01*
X131292357Y-43583684D01*
X131314827Y-43600933D01*
X131353113Y-43617451D01*
X131399478Y-43625853D01*
X131470288Y-43624412D01*
X131488118Y-43480491D01*
X131424563Y-43454649D01*
X131380346Y-43444954D01*
X131340730Y-43444815D01*
X131314889Y-43451732D01*
X131294457Y-43464909D01*
X131281366Y-43481102D01*
X131269032Y-43513281D01*
X131266956Y-43528119D01*
X130890310Y-43528119D01*
X130890272Y-43516945D01*
X130898070Y-43472336D01*
X130915863Y-43425903D01*
X130945105Y-43376810D01*
X130982427Y-43333715D01*
X131036299Y-43289908D01*
X131110580Y-43245286D01*
X131057319Y-43190405D01*
X131020945Y-43142670D01*
X131007363Y-43117852D01*
X131340412Y-43117852D01*
X131341084Y-43133483D01*
X131345907Y-43150703D01*
X131352741Y-43167827D01*
X131365203Y-43187889D01*
X131382203Y-43205971D01*
X131406480Y-43222266D01*
X131435467Y-43231259D01*
X131474257Y-43230081D01*
X131468762Y-43086161D01*
X131417277Y-43070321D01*
X131387185Y-43069248D01*
X131362996Y-43076954D01*
X131349815Y-43088115D01*
X131342367Y-43102795D01*
X131340412Y-43117852D01*
X131007363Y-43117852D01*
X130998106Y-43100938D01*
X130982334Y-43056002D01*
X130975773Y-43016664D01*
X130977040Y-42981748D01*
X130991215Y-42931792D01*
X131017950Y-42888569D01*
X131052570Y-42851266D01*
X131087621Y-42822318D01*
X131153017Y-42782934D01*
X131181837Y-42769562D01*
X131211452Y-42763272D01*
X131246600Y-42758746D01*
X131315316Y-42756250D01*
X131396262Y-42758460D01*
G37*
G36*
X130365272Y-42760708D02*
G01*
X130488432Y-42772615D01*
X130879159Y-42815540D01*
X130856628Y-43911641D01*
X130514322Y-43946995D01*
X130510108Y-43709469D01*
X130171710Y-43958658D01*
X129952258Y-43710874D01*
X130244006Y-43519631D01*
X130182914Y-43476439D01*
X130128980Y-43428379D01*
X130081707Y-43375284D01*
X130040417Y-43317314D01*
X130008130Y-43259609D01*
X129984131Y-43201871D01*
X129979214Y-43184164D01*
X130343291Y-43184164D01*
X130344695Y-43199368D01*
X130360510Y-43232829D01*
X130375826Y-43253875D01*
X130398673Y-43277892D01*
X130425780Y-43300181D01*
X130460527Y-43322344D01*
X130499286Y-43340373D01*
X130544852Y-43353790D01*
X130531113Y-43133728D01*
X130468119Y-43113079D01*
X130426822Y-43107105D01*
X130391149Y-43110239D01*
X130369791Y-43119256D01*
X130354623Y-43133965D01*
X130346649Y-43151252D01*
X130343291Y-43184164D01*
X129979214Y-43184164D01*
X129967450Y-43141798D01*
X129959430Y-43083901D01*
X129959585Y-43027604D01*
X129968375Y-42972363D01*
X129985758Y-42922951D01*
X130011670Y-42878372D01*
X130045815Y-42839969D01*
X130089825Y-42807350D01*
X130145393Y-42780491D01*
X130205007Y-42763957D01*
X130277393Y-42756763D01*
X130365272Y-42760708D01*
G37*
G36*
X129938397Y-42827569D02*
G01*
X129162010Y-42769806D01*
X129205852Y-43128293D01*
X129556829Y-43143742D01*
X129558111Y-43207001D01*
X129303305Y-43188743D01*
X129333102Y-43437932D01*
X129566598Y-43456128D01*
X129569285Y-43529218D01*
X129169154Y-43491360D01*
X129176298Y-43882088D01*
X129928627Y-43922937D01*
X129938397Y-42827569D01*
G37*
G36*
X129229787Y-43819867D02*
G01*
X128804439Y-43958536D01*
X128746919Y-43747815D01*
X128455721Y-43738168D01*
X128337996Y-43934600D01*
X127894817Y-43766500D01*
X128074936Y-43492276D01*
X128511836Y-43492276D01*
X128672425Y-43520669D01*
X128579308Y-43308606D01*
X128511836Y-43492276D01*
X128074936Y-43492276D01*
X128604465Y-42686092D01*
X129229787Y-43819867D01*
G37*
G36*
X127015787Y-43028154D02*
G01*
X127405843Y-43389450D01*
X127062010Y-43678145D01*
X127260091Y-43974656D01*
X127529979Y-43720643D01*
X127532727Y-43895643D01*
X127903121Y-43938080D01*
X127925653Y-42810839D01*
X127511722Y-42761379D01*
X127515813Y-43010629D01*
X127292759Y-42702334D01*
X127015787Y-43028154D01*
G37*
G36*
X127029953Y-42827569D02*
G01*
X126253566Y-42769806D01*
X126297408Y-43128293D01*
X126648385Y-43143742D01*
X126649667Y-43207001D01*
X126394861Y-43188743D01*
X126424658Y-43437932D01*
X126658155Y-43456128D01*
X126660841Y-43529218D01*
X126260710Y-43491360D01*
X126267854Y-43882088D01*
X127020183Y-43922937D01*
X127029953Y-42827569D01*
G37*
G36*
X125690464Y-42760708D02*
G01*
X125813624Y-42772615D01*
X126204351Y-42815540D01*
X126181820Y-43911641D01*
X125839514Y-43946995D01*
X125835300Y-43709469D01*
X125496902Y-43958658D01*
X125277450Y-43710874D01*
X125569198Y-43519631D01*
X125508106Y-43476439D01*
X125454172Y-43428379D01*
X125406898Y-43375284D01*
X125365609Y-43317314D01*
X125333322Y-43259609D01*
X125309323Y-43201871D01*
X125304406Y-43184164D01*
X125668483Y-43184164D01*
X125669887Y-43199368D01*
X125685702Y-43232829D01*
X125701018Y-43253875D01*
X125723865Y-43277892D01*
X125750971Y-43300181D01*
X125785719Y-43322344D01*
X125824478Y-43340373D01*
X125870044Y-43353790D01*
X125856305Y-43133728D01*
X125793311Y-43113079D01*
X125752014Y-43107105D01*
X125716341Y-43110239D01*
X125694983Y-43119256D01*
X125679815Y-43133965D01*
X125671841Y-43151252D01*
X125668483Y-43184164D01*
X125304406Y-43184164D01*
X125292642Y-43141798D01*
X125284622Y-43083901D01*
X125284777Y-43027604D01*
X125293567Y-42972363D01*
X125310950Y-42922951D01*
X125336862Y-42878372D01*
X125371007Y-42839969D01*
X125415017Y-42807350D01*
X125470585Y-42780491D01*
X125530199Y-42763957D01*
X125602585Y-42756763D01*
X125690464Y-42760708D01*
G37*
M02*
