M48
; DRILL file {KiCad 9.0.6-9.0.6~ubuntu25.04.1} date 2025-12-27T12:18:58+1000
; FORMAT={-:-/ absolute / metric / decimal}
; #@! TF.CreationDate,2025-12-27T12:18:58+10:00
; #@! TF.GenerationSoftware,Kicad,Pcbnew,9.0.6-9.0.6~ubuntu25.04.1
; #@! TF.FileFunction,Plated,1,4,PTH
FMAT,2
METRIC
; #@! TA.AperFunction,Plated,PTH,ComponentDrill
T1C0.200
; #@! TA.AperFunction,Plated,PTH,ViaDrill
T2C0.250
; #@! TA.AperFunction,Plated,PTH,ViaDrill
T3C0.300
; #@! TA.AperFunction,Plated,PTH,ComponentDrill
T4C0.300
; #@! TA.AperFunction,Plated,PTH,ViaDrill
T5C0.400
; #@! TA.AperFunction,Plated,PTH,ComponentDrill
T6C0.500
; #@! TA.AperFunction,Plated,PTH,ComponentDrill
T7C0.600
; #@! TA.AperFunction,Plated,PTH,ComponentDrill
T8C0.750
; #@! TA.AperFunction,Plated,PTH,ComponentDrill
T9C2.000
%
G90
G05
T1
X146.9Y-57.4
X146.9Y-58.5
X146.9Y-59.6
X148.0Y-57.4
X148.0Y-58.5
X148.0Y-59.6
X149.1Y-57.4
X149.1Y-58.5
X149.1Y-59.6
T2
X117.0Y-49.316
X118.25Y-50.75
X119.0Y-50.0
X119.0Y-51.5
X119.26Y-47.0
X119.75Y-50.75
X120.25Y-47.75
X120.75Y-48.433
X121.5Y-53.25
X121.736Y-52.514
X122.5Y-52.5
X122.75Y-49.0
X126.0Y-50.5
X126.25Y-51.25
X132.5Y-60.25
X134.25Y-54.75
X134.25Y-58.75
X135.0Y-54.75
X140.0Y-49.75
X140.0Y-50.25
X140.0Y-50.75
X140.0Y-51.25
X140.0Y-51.75
X140.5Y-49.75
X140.5Y-50.25
X140.5Y-50.75
X140.5Y-51.25
X140.5Y-51.75
X141.0Y-49.75
X141.0Y-50.25
X141.0Y-50.75
X141.0Y-51.25
X141.0Y-51.75
X141.5Y-49.75
X141.5Y-50.25
X141.5Y-50.75
X141.5Y-51.25
X141.5Y-51.75
X142.0Y-49.75
X142.0Y-50.25
X142.0Y-50.75
X142.0Y-51.25
X142.0Y-51.75
X143.75Y-59.0
X144.5Y-53.0
X144.5Y-59.0
X145.25Y-49.0
X145.25Y-60.5
X145.75Y-49.0
X147.25Y-53.0
X148.75Y-61.5
X148.861Y-52.389
X151.25Y-57.52
X151.25Y-58.48
X152.25Y-58.48
X153.0Y-58.25
X153.0Y-58.75
X153.5Y-57.75
X153.5Y-58.25
X153.5Y-58.75
X154.0Y-57.25
X154.0Y-57.75
X154.0Y-58.25
X154.0Y-58.75
X154.5Y-49.0
X154.5Y-56.75
X154.5Y-57.25
X154.5Y-57.75
X154.5Y-58.25
X154.5Y-58.75
X155.0Y-56.75
X155.0Y-57.25
X155.0Y-57.75
X155.0Y-58.25
X155.25Y-52.5
X155.5Y-56.75
X155.5Y-57.25
X155.5Y-57.75
X156.0Y-52.5
X156.0Y-56.75
X156.0Y-57.25
X156.5Y-56.75
X156.75Y-52.5
X157.25Y-53.25
X157.25Y-53.75
X157.25Y-54.25
X157.25Y-54.75
X157.25Y-55.25
X162.5Y-43.5
X162.5Y-44.0
X162.5Y-44.5
X162.5Y-45.5
X162.5Y-46.0
X162.5Y-46.5
X163.0Y-43.5
X163.0Y-44.0
X163.0Y-44.5
X163.0Y-45.5
X163.0Y-46.0
X163.0Y-46.5
X163.5Y-43.5
X163.5Y-44.0
X163.5Y-44.5
X163.5Y-45.5
X163.5Y-46.0
X163.5Y-46.5
T3
X114.75Y-46.0
X114.75Y-50.0
X115.25Y-46.0
X115.25Y-50.0
X115.75Y-46.0
X115.75Y-50.0
X115.875Y-41.75
X116.0Y-52.75
X117.25Y-54.0
X119.0Y-55.75
X121.602Y-56.898
X122.5Y-56.0
X122.625Y-41.75
X124.0Y-56.75
X124.505Y-50.4
X124.855Y-42.15
X124.905Y-52.85
X125.0Y-54.5
X127.5Y-56.5
X127.5Y-58.5
X130.0Y-60.25
X131.25Y-56.75
X131.25Y-58.25
X132.0Y-56.75
X132.0Y-57.5
X132.0Y-58.25
X132.5Y-54.35
X132.805Y-42.025
X132.805Y-49.75
X136.205Y-42.15
X136.25Y-53.0
X136.455Y-49.75
X137.379Y-52.629
X137.5Y-50.0
X142.5Y-61.0
X144.8Y-47.93
X145.5Y-52.25
X145.5Y-53.0
X145.5Y-53.75
X145.6Y-47.93
X146.25Y-52.25
X146.25Y-53.0
X146.25Y-53.75
X150.4Y-47.93
X151.2Y-47.93
X151.25Y-56.75
X151.75Y-60.25
X151.75Y-61.25
X152.75Y-60.25
X152.75Y-61.25
X155.25Y-56.0
X155.5Y-53.5
X155.5Y-55.0
X156.0Y-56.0
X156.05Y-54.25
X156.5Y-53.5
X156.5Y-55.0
X156.75Y-56.0
X160.25Y-47.25
X161.0Y-47.25
X161.75Y-47.25
T4
X156.0Y-47.5
T5
X119.0Y-50.75
X131.25Y-57.5
X133.5Y-53.0
X140.0Y-54.5
X140.0Y-55.25
X140.0Y-56.0
X140.75Y-54.5
X140.75Y-55.25
X140.75Y-56.0
X141.5Y-54.5
X141.5Y-55.25
X141.5Y-56.0
X151.25Y-59.75
X151.25Y-60.75
X151.25Y-61.75
X152.25Y-59.75
X152.25Y-60.75
X152.25Y-61.75
X153.25Y-59.75
X153.25Y-60.75
X153.25Y-61.75
T6
X115.0Y-54.75
X116.5Y-56.25
X118.0Y-57.75
X119.5Y-59.25
X121.0Y-60.75
X123.0Y-61.75
X124.5Y-61.75
X133.0Y-61.75
X134.0Y-61.75
T8
X115.25Y-47.0
X115.25Y-49.0
X161.0Y-44.0
X161.0Y-46.0
T9
X136.75Y-60.25
X140.75Y-58.75
T7
G00X143.68Y-43.575
M15
G01X143.68Y-42.775
M16
G05
G00X143.68Y-47.905
M15
G01X143.68Y-46.805
M16
G05
G00X152.32Y-43.575
M15
G01X152.32Y-42.775
M16
G05
G00X152.32Y-47.905
M15
G01X152.32Y-46.805
M16
G05
M30
