%TF.GenerationSoftware,KiCad,Pcbnew,9.0.6-9.0.6~ubuntu25.04.1*%
%TF.CreationDate,2025-12-27T12:18:54+10:00*%
%TF.ProjectId,Stormbreaker,53746f72-6d62-4726-9561-6b65722e6b69,rev?*%
%TF.SameCoordinates,Original*%
%TF.FileFunction,Soldermask,Top*%
%TF.FilePolarity,Negative*%
%FSLAX46Y46*%
G04 Gerber Fmt 4.6, Leading zero omitted, Abs format (unit mm)*
G04 Created by KiCad (PCBNEW 9.0.6-9.0.6~ubuntu25.04.1) date 2025-12-27 12:18:54*
%MOMM*%
%LPD*%
G01*
G04 APERTURE LIST*
G04 Aperture macros list*
%AMRoundRect*
0 Rectangle with rounded corners*
0 $1 Rounding radius*
0 $2 $3 $4 $5 $6 $7 $8 $9 X,Y pos of 4 corners*
0 Add a 4 corners polygon primitive as box body*
4,1,4,$2,$3,$4,$5,$6,$7,$8,$9,$2,$3,0*
0 Add four circle primitives for the rounded corners*
1,1,$1+$1,$2,$3*
1,1,$1+$1,$4,$5*
1,1,$1+$1,$6,$7*
1,1,$1+$1,$8,$9*
0 Add four rect primitives between the rounded corners*
20,1,$1+$1,$2,$3,$4,$5,0*
20,1,$1+$1,$4,$5,$6,$7,0*
20,1,$1+$1,$6,$7,$8,$9,0*
20,1,$1+$1,$8,$9,$2,$3,0*%
%AMRotRect*
0 Rectangle, with rotation*
0 The origin of the aperture is its center*
0 $1 length*
0 $2 width*
0 $3 Rotation angle, in degrees counterclockwise*
0 Add horizontal line*
21,1,$1,$2,0,0,$3*%
%AMFreePoly0*
4,1,14,0.334644,0.085355,0.385355,0.034644,0.400000,-0.000711,0.400000,-0.050000,0.385355,-0.085355,0.350000,-0.100000,-0.350000,-0.100000,-0.385355,-0.085355,-0.400000,-0.050000,-0.400000,0.050000,-0.385355,0.085355,-0.350000,0.100000,0.299289,0.100000,0.334644,0.085355,0.334644,0.085355,$1*%
%AMFreePoly1*
4,1,14,0.385355,0.085355,0.400000,0.050000,0.400000,0.000711,0.385355,-0.034644,0.334644,-0.085355,0.299289,-0.100000,-0.350000,-0.100000,-0.385355,-0.085355,-0.400000,-0.050000,-0.400000,0.050000,-0.385355,0.085355,-0.350000,0.100000,0.350000,0.100000,0.385355,0.085355,0.385355,0.085355,$1*%
%AMFreePoly2*
4,1,14,0.085355,0.385355,0.100000,0.350000,0.100000,-0.350000,0.085355,-0.385355,0.050000,-0.400000,-0.050000,-0.400000,-0.085355,-0.385355,-0.100000,-0.350000,-0.100000,0.299289,-0.085355,0.334644,-0.034644,0.385355,0.000711,0.400000,0.050000,0.400000,0.085355,0.385355,0.085355,0.385355,$1*%
%AMFreePoly3*
4,1,14,0.034644,0.385355,0.085355,0.334644,0.100000,0.299289,0.100000,-0.350000,0.085355,-0.385355,0.050000,-0.400000,-0.050000,-0.400000,-0.085355,-0.385355,-0.100000,-0.350000,-0.100000,0.350000,-0.085355,0.385355,-0.050000,0.400000,-0.000711,0.400000,0.034644,0.385355,0.034644,0.385355,$1*%
%AMFreePoly4*
4,1,14,0.385355,0.085355,0.400000,0.050000,0.400000,-0.050000,0.385355,-0.085355,0.350000,-0.100000,-0.299289,-0.100000,-0.334644,-0.085355,-0.385355,-0.034644,-0.400000,0.000711,-0.400000,0.050000,-0.385355,0.085355,-0.350000,0.100000,0.350000,0.100000,0.385355,0.085355,0.385355,0.085355,$1*%
%AMFreePoly5*
4,1,14,0.385355,0.085355,0.400000,0.050000,0.400000,-0.050000,0.385355,-0.085355,0.350000,-0.100000,-0.350000,-0.100000,-0.385355,-0.085355,-0.400000,-0.050000,-0.400000,-0.000711,-0.385355,0.034644,-0.334644,0.085355,-0.299289,0.100000,0.350000,0.100000,0.385355,0.085355,0.385355,0.085355,$1*%
%AMFreePoly6*
4,1,14,0.085355,0.385355,0.100000,0.350000,0.100000,-0.299289,0.085355,-0.334644,0.034644,-0.385355,-0.000711,-0.400000,-0.050000,-0.400000,-0.085355,-0.385355,-0.100000,-0.350000,-0.100000,0.350000,-0.085355,0.385355,-0.050000,0.400000,0.050000,0.400000,0.085355,0.385355,0.085355,0.385355,$1*%
%AMFreePoly7*
4,1,14,0.085355,0.385355,0.100000,0.350000,0.100000,-0.350000,0.085355,-0.385355,0.050000,-0.400000,0.000711,-0.400000,-0.034644,-0.385355,-0.085355,-0.334644,-0.100000,-0.299289,-0.100000,0.350000,-0.085355,0.385355,-0.050000,0.400000,0.050000,0.400000,0.085355,0.385355,0.085355,0.385355,$1*%
%AMFreePoly8*
4,1,21,1.372500,0.787500,0.862500,0.787500,0.862500,0.532500,1.372500,0.532500,1.372500,0.127500,0.862500,0.127500,0.862500,-0.127500,1.372500,-0.127500,1.372500,-0.532500,0.862500,-0.532500,0.862500,-0.787500,1.372500,-0.787500,1.372500,-1.195000,0.612500,-1.195000,0.612500,-1.117500,-0.862500,-1.117500,-0.862500,1.117500,0.612500,1.117500,0.612500,1.195000,1.372500,1.195000,
1.372500,0.787500,1.372500,0.787500,$1*%
G04 Aperture macros list end*
%ADD10C,3.000000*%
%ADD11C,1.000000*%
%ADD12RoundRect,0.225000X0.250000X-0.225000X0.250000X0.225000X-0.250000X0.225000X-0.250000X-0.225000X0*%
%ADD13RoundRect,0.140000X0.170000X-0.140000X0.170000X0.140000X-0.170000X0.140000X-0.170000X-0.140000X0*%
%ADD14RoundRect,0.062500X-0.350000X-0.062500X0.350000X-0.062500X0.350000X0.062500X-0.350000X0.062500X0*%
%ADD15RoundRect,0.062500X-0.062500X-0.350000X0.062500X-0.350000X0.062500X0.350000X-0.062500X0.350000X0*%
%ADD16R,2.700000X2.700000*%
%ADD17RoundRect,0.135000X-0.135000X-0.185000X0.135000X-0.185000X0.135000X0.185000X-0.135000X0.185000X0*%
%ADD18FreePoly0,315.000000*%
%ADD19RoundRect,0.050000X-0.282843X0.212132X0.212132X-0.282843X0.282843X-0.212132X-0.212132X0.282843X0*%
%ADD20FreePoly1,315.000000*%
%ADD21FreePoly2,315.000000*%
%ADD22RoundRect,0.050000X-0.282843X-0.212132X-0.212132X-0.282843X0.282843X0.212132X0.212132X0.282843X0*%
%ADD23FreePoly3,315.000000*%
%ADD24FreePoly4,315.000000*%
%ADD25FreePoly5,315.000000*%
%ADD26FreePoly6,315.000000*%
%ADD27FreePoly7,315.000000*%
%ADD28RotRect,1.700000X1.700000X315.000000*%
%ADD29RoundRect,0.140000X-0.021213X0.219203X-0.219203X0.021213X0.021213X-0.219203X0.219203X-0.021213X0*%
%ADD30RoundRect,0.250000X-0.700000X-1.000000X0.700000X-1.000000X0.700000X1.000000X-0.700000X1.000000X0*%
%ADD31RoundRect,0.140000X-0.140000X-0.170000X0.140000X-0.170000X0.140000X0.170000X-0.140000X0.170000X0*%
%ADD32RoundRect,0.140000X-0.170000X0.140000X-0.170000X-0.140000X0.170000X-0.140000X0.170000X0.140000X0*%
%ADD33RoundRect,0.062500X-0.375000X-0.062500X0.375000X-0.062500X0.375000X0.062500X-0.375000X0.062500X0*%
%ADD34RoundRect,0.062500X-0.062500X-0.375000X0.062500X-0.375000X0.062500X0.375000X-0.062500X0.375000X0*%
%ADD35R,2.500000X2.500000*%
%ADD36RoundRect,0.225000X0.225000X0.250000X-0.225000X0.250000X-0.225000X-0.250000X0.225000X-0.250000X0*%
%ADD37C,0.750000*%
%ADD38C,0.650000*%
%ADD39RoundRect,0.150000X0.150000X0.425000X-0.150000X0.425000X-0.150000X-0.425000X0.150000X-0.425000X0*%
%ADD40RoundRect,0.075000X0.075000X0.500000X-0.075000X0.500000X-0.075000X-0.500000X0.075000X-0.500000X0*%
%ADD41O,1.000000X2.100000*%
%ADD42O,1.000000X1.800000*%
%ADD43RoundRect,0.250000X0.625000X-0.350000X0.625000X0.350000X-0.625000X0.350000X-0.625000X-0.350000X0*%
%ADD44O,1.750000X1.200000*%
%ADD45RoundRect,0.100000X-0.038891X-0.180312X0.180312X0.038891X0.038891X0.180312X-0.180312X-0.038891X0*%
%ADD46R,0.405000X0.990000*%
%ADD47FreePoly8,270.000000*%
%ADD48R,0.700000X1.750000*%
%ADD49R,1.450000X1.000000*%
%ADD50R,1.000000X1.550000*%
%ADD51R,0.800000X1.500000*%
%ADD52R,1.300000X1.500000*%
%ADD53R,1.500000X1.500000*%
%ADD54R,0.800000X1.400000*%
%ADD55RoundRect,0.135000X0.185000X-0.135000X0.185000X0.135000X-0.185000X0.135000X-0.185000X-0.135000X0*%
%ADD56R,0.850000X0.850000*%
%ADD57C,0.850000*%
%ADD58R,0.900000X1.270000*%
%ADD59R,1.450000X0.800000*%
%ADD60RoundRect,0.135000X-0.035355X0.226274X-0.226274X0.035355X0.035355X-0.226274X0.226274X-0.035355X0*%
%ADD61R,1.200000X1.200000*%
%ADD62O,1.200000X1.200000*%
%ADD63RoundRect,0.135000X0.135000X0.185000X-0.135000X0.185000X-0.135000X-0.185000X0.135000X-0.185000X0*%
%ADD64C,1.500000*%
%ADD65RoundRect,0.140000X0.140000X0.170000X-0.140000X0.170000X-0.140000X-0.170000X0.140000X-0.170000X0*%
%ADD66RoundRect,0.062500X-0.337500X-0.062500X0.337500X-0.062500X0.337500X0.062500X-0.337500X0.062500X0*%
%ADD67RoundRect,0.062500X-0.062500X-0.337500X0.062500X-0.337500X0.062500X0.337500X-0.062500X0.337500X0*%
%ADD68RoundRect,0.250000X-0.600000X-0.600000X0.600000X-0.600000X0.600000X0.600000X-0.600000X0.600000X0*%
%ADD69C,2.000000*%
G04 APERTURE END LIST*
D10*
%TO.C,TP9*%
X136750000Y-60250000D03*
%TD*%
D11*
%TO.C,TP4*%
X121000000Y-60750000D03*
%TD*%
D12*
%TO.C,C13*%
X117000000Y-48275000D03*
X117000000Y-46725000D03*
%TD*%
D11*
%TO.C,TP1*%
X124500000Y-61750000D03*
%TD*%
D13*
%TO.C,C5*%
X151250000Y-58480000D03*
X151250000Y-57520000D03*
%TD*%
D14*
%TO.C,U1*%
X146037500Y-57250000D03*
X146037500Y-57750000D03*
X146037500Y-58250000D03*
X146037500Y-58750000D03*
X146037500Y-59250000D03*
X146037500Y-59750000D03*
D15*
X146750000Y-60462500D03*
X147250000Y-60462500D03*
X147750000Y-60462500D03*
X148250000Y-60462500D03*
X148750000Y-60462500D03*
X149250000Y-60462500D03*
D14*
X149962500Y-59750000D03*
X149962500Y-59250000D03*
X149962500Y-58750000D03*
X149962500Y-58250000D03*
X149962500Y-57750000D03*
X149962500Y-57250000D03*
D15*
X149250000Y-56537500D03*
X148750000Y-56537500D03*
X148250000Y-56537500D03*
X147750000Y-56537500D03*
X147250000Y-56537500D03*
X146750000Y-56537500D03*
D16*
X148000000Y-58500000D03*
%TD*%
D17*
%TO.C,R9*%
X121740000Y-49500000D03*
X122760000Y-49500000D03*
%TD*%
D18*
%TO.C,U3*%
X118540381Y-49159010D03*
D19*
X118257538Y-49441852D03*
X117974695Y-49724695D03*
X117691852Y-50007538D03*
D20*
X117409010Y-50290381D03*
D21*
X117409010Y-51209619D03*
D22*
X117691852Y-51492462D03*
X117974695Y-51775305D03*
X118257538Y-52058148D03*
D23*
X118540381Y-52340990D03*
D24*
X119459619Y-52340990D03*
D19*
X119742462Y-52058148D03*
X120025305Y-51775305D03*
X120308148Y-51492462D03*
D25*
X120590990Y-51209619D03*
D26*
X120590990Y-50290381D03*
D22*
X120308148Y-50007538D03*
X120025305Y-49724695D03*
X119742462Y-49441852D03*
D27*
X119459619Y-49159010D03*
D28*
X119000000Y-50750000D03*
%TD*%
D29*
%TO.C,C4*%
X149339411Y-53410589D03*
X148660589Y-54089411D03*
%TD*%
D11*
%TO.C,TP7*%
X118000000Y-57750000D03*
%TD*%
D30*
%TO.C,L1*%
X151950000Y-54250000D03*
X156050000Y-54250000D03*
%TD*%
D31*
%TO.C,C9*%
X129020000Y-61750000D03*
X129980000Y-61750000D03*
%TD*%
D11*
%TO.C,TP10*%
X115000000Y-54750000D03*
%TD*%
%TO.C,TP2*%
X123000000Y-61750000D03*
%TD*%
D17*
%TO.C,R10*%
X121740000Y-48500000D03*
X122760000Y-48500000D03*
%TD*%
D32*
%TO.C,C7*%
X147250000Y-54020000D03*
X147250000Y-54980000D03*
%TD*%
D13*
%TO.C,C12*%
X134500000Y-56980000D03*
X134500000Y-56020000D03*
%TD*%
D17*
%TO.C,R1*%
X143240000Y-60500000D03*
X144260000Y-60500000D03*
%TD*%
D33*
%TO.C,U2*%
X129312500Y-56250000D03*
X129312500Y-56750000D03*
X129312500Y-57250000D03*
X129312500Y-57750000D03*
X129312500Y-58250000D03*
X129312500Y-58750000D03*
D34*
X130000000Y-59437500D03*
X130500000Y-59437500D03*
X131000000Y-59437500D03*
X131500000Y-59437500D03*
X132000000Y-59437500D03*
X132500000Y-59437500D03*
D33*
X133187500Y-58750000D03*
X133187500Y-58250000D03*
X133187500Y-57750000D03*
X133187500Y-57250000D03*
X133187500Y-56750000D03*
X133187500Y-56250000D03*
D34*
X132500000Y-55562500D03*
X132000000Y-55562500D03*
X131500000Y-55562500D03*
X131000000Y-55562500D03*
X130500000Y-55562500D03*
X130000000Y-55562500D03*
D35*
X131250000Y-57500000D03*
%TD*%
D13*
%TO.C,C6*%
X152250000Y-58480000D03*
X152250000Y-57520000D03*
%TD*%
D36*
%TO.C,C2*%
X160000000Y-51750000D03*
X158450000Y-51750000D03*
%TD*%
D37*
%TO.C,J3*%
X121601974Y-56898026D03*
X122500000Y-56000000D03*
X123398026Y-55101974D03*
%TD*%
D38*
%TO.C,J2*%
X150890000Y-46855000D03*
X145110000Y-46855000D03*
D39*
X151200000Y-47930000D03*
X150400000Y-47930000D03*
D40*
X149250000Y-47930000D03*
X148250000Y-47930000D03*
X147750000Y-47930000D03*
X146750000Y-47930000D03*
D39*
X145600000Y-47930000D03*
X144800000Y-47930000D03*
X144800000Y-47930000D03*
X145600000Y-47930000D03*
D40*
X146250000Y-47930000D03*
X147250000Y-47930000D03*
X148750000Y-47930000D03*
X149750000Y-47930000D03*
D39*
X150400000Y-47930000D03*
X151200000Y-47930000D03*
D41*
X152320000Y-47355000D03*
D42*
X152320000Y-43175000D03*
D41*
X143680000Y-47355000D03*
D42*
X143680000Y-43175000D03*
%TD*%
D36*
%TO.C,C1*%
X145775000Y-55000000D03*
X144225000Y-55000000D03*
%TD*%
D43*
%TO.C,BT2*%
X161000000Y-46000000D03*
D44*
X161000000Y-44000000D03*
%TD*%
D11*
%TO.C,TP6*%
X119500000Y-59250000D03*
%TD*%
D45*
%TO.C,Q2*%
X123809637Y-58647470D03*
X123102530Y-57940363D03*
X122543916Y-59206084D03*
%TD*%
D46*
%TO.C,Q1*%
X141740000Y-53065000D03*
X141080000Y-53065000D03*
X140420000Y-53065000D03*
X139760000Y-53065000D03*
D47*
X140750000Y-55057500D03*
%TD*%
D36*
%TO.C,C14*%
X145775000Y-49750000D03*
X144225000Y-49750000D03*
%TD*%
D48*
%TO.C,J1*%
X127305000Y-42025000D03*
X128405000Y-42025000D03*
X129505000Y-42025000D03*
X130605000Y-42025000D03*
X131705000Y-42025000D03*
X132805000Y-42025000D03*
X133905000Y-42025000D03*
X135005000Y-42025000D03*
D49*
X136130000Y-51250000D03*
D50*
X124905000Y-52825000D03*
D51*
X136455000Y-49750000D03*
D52*
X136205000Y-42150000D03*
D53*
X124855000Y-42150000D03*
D54*
X124505000Y-50400000D03*
%TD*%
D55*
%TO.C,R11*%
X154000000Y-44760000D03*
X154000000Y-43740000D03*
%TD*%
D56*
%TO.C,J5*%
X133000000Y-61750000D03*
D57*
X134000000Y-61750000D03*
%TD*%
D11*
%TO.C,TP11*%
X116500000Y-56250000D03*
%TD*%
D58*
%TO.C,SW1*%
X117150000Y-43635000D03*
X121350000Y-43635000D03*
D59*
X122625000Y-41750000D03*
X115875000Y-41750000D03*
%TD*%
D17*
%TO.C,R2*%
X143240001Y-61500000D03*
X144259999Y-61500000D03*
%TD*%
D31*
%TO.C,C15*%
X153770000Y-50250707D03*
X154730000Y-50250707D03*
%TD*%
D60*
%TO.C,R7*%
X121610624Y-55139376D03*
X120889376Y-55860624D03*
%TD*%
D61*
%TO.C,BT1*%
X115250000Y-47000000D03*
D62*
X115250000Y-49000000D03*
%TD*%
D63*
%TO.C,R6*%
X156760000Y-50251000D03*
X155740000Y-50251000D03*
%TD*%
D36*
%TO.C,C16*%
X160000000Y-53250000D03*
X158450000Y-53250000D03*
%TD*%
D10*
%TO.C,TP5*%
X140750000Y-58750000D03*
%TD*%
D55*
%TO.C,R8*%
X138750000Y-51770000D03*
X138750000Y-50750000D03*
%TD*%
D64*
%TO.C,TP3*%
X127250000Y-61250000D03*
%TD*%
D17*
%TO.C,R5*%
X118240000Y-47000000D03*
X119260000Y-47000000D03*
%TD*%
D60*
%TO.C,R3*%
X148860624Y-52389376D03*
X148139376Y-53110624D03*
%TD*%
D65*
%TO.C,C8*%
X128000000Y-55000000D03*
X127040000Y-55000000D03*
%TD*%
D66*
%TO.C,U4*%
X154550000Y-46750000D03*
X154550000Y-47250000D03*
X154550000Y-47750000D03*
X154550000Y-48250000D03*
D67*
X155250000Y-48950000D03*
X155750000Y-48950000D03*
X156250000Y-48950000D03*
X156750000Y-48950000D03*
D66*
X157450000Y-48250000D03*
X157450000Y-47750000D03*
X157450000Y-47250000D03*
X157450000Y-46750000D03*
D67*
X156750000Y-46050000D03*
X156250000Y-46050000D03*
X155750000Y-46050000D03*
X155250000Y-46050000D03*
D68*
X156000000Y-47500000D03*
%TD*%
D69*
%TO.C,TP8*%
X141000000Y-47750000D03*
%TD*%
D65*
%TO.C,C3*%
X149710000Y-55250000D03*
X148750000Y-55250000D03*
%TD*%
M02*
